<?xml version="1.0" encoding="UTF-8"?>
<svg id="Capa_1" data-name="Capa 1" xmlns="http://www.w3.org/2000/svg" viewBox="0 0 639.25 644.81">
  <defs>
    <style>
      .cls-1 {
        fill: #00a374;
      }

      .cls-2 {
        fill: #05c68a;
      }

      .cls-3 {
        fill: #015646;
      }
    </style>
  </defs>
  <path d="m218.74,168.32h-.12c-.35-1.15-.69-2.31-1.04-3.58.35,1.27.7,2.43,1.16,3.58Z"/>
  <path d="m340.52,233.31s.58.12,1.73.58c-.58-.23-1.15-.35-1.73-.58Z"/>
  <g>
    <path class="cls-2" d="m392.02,265.67c-3,3-11.57,11.5-15.26,15.31-2.66-8.43-5.08-16.16-7.5-24.01.12,0,.36-5.13.47-5.25-8.2-6.81-17.21-15.38-23.33-18.72.11.23-.69,6.54-.69,6.77-3.23,20.32,1.04,39.02,11.77,56.33.81,1.27.92,4.16.12,5.08-8.54,8.89-17.32,17.66-25.74,26.09-7.96-3.69-15.12-7.73-22.86-10.27-23.89-7.85-46.64-4.73-67.87,8.66-2.77,1.73-4.39,1.85-6.81-.58-40.63-40.86-81.26-81.5-122.13-122.13-2.08-2.08-2.54-3.58-.81-6.35,17.78-29.32,17.55-58.64-.46-87.84-.46-.69-.81-1.5-1.62-2.89,9.12-9,17.78-17.78,26.78-26.32.92-.81,3.81-.58,5.08.23,15.81,9.93,32.9,13.97,51.37,12.35,12.81-1.15,24.59-5.19,35.32-12.24,2.65-1.73,4.39-1.96,6.81.46,6.35,6.46,12.81,12.81,19.62,19.51l11.08,11.16,43.06,7.62c-9.12-9-29.09-29.16-38.09-38.05l-38.9-38.9c-11.89-12.24-24.01-24.24-36.13-36.25-5.66-5.66-10.97-6.93-16.28-3.69-2.42,1.39-4.5,3.46-6.46,5.43L39,140.74c-9.58,9.58-9.58,14.89,0,24.59,77.57,77.57,155.26,155.14,232.83,232.83,9.23,9.12,15.58,9.12,24.82-.12,39.82-39.94,85.21-85.15,125.04-125.09-9.46-.93-21.58-3.01-29.67-7.28ZM184.22,31.53c9.47,9.35,18.7,18.58,28.05,27.93-13.85,10.39-40.63,10.39-56.56-1.15,9.7-9.11,19.28-18.12,28.51-26.78Zm-93.15,149.03l-27.47-27.47c9.12-9,18.47-18.12,27.7-27.36,10.5,12.7,10.39,42.25-.23,54.83Zm193.12,193.23c-9-9.12-18.12-18.47-27.24-27.7,10.85-10.5,40.4-10.74,54.72-.12-9.36,9.35-18.48,18.59-27.48,27.82Z"/>
    <path class="cls-2" d="m280.46,210.63c0,.12-1.58,6.4-1.7,6.52-5.89,19.05-24.7,32.44-45.13,32.09s-38.55-14.31-43.86-33.82c-5.54-20.43,2.54-41.32,20.32-52.29,1.39-.92,6.23-3.18,8.08-4.1-.69-7.5.08-17.55,4.82-27.25-1.04.58-6.2,1.45-7.47,1.8-31.28,8.66-52.41,36.36-52.75,68.8-.23,31.74,20.55,59.68,51.14,69.03,36.48,11.08,75.49-8.66,88.08-44.79.35-.81,2.16-7.56,2.62-8.13l-24.15-7.86Z"/>
  </g>
  <g>
    <path class="cls-3" d="m550.71,91.79v-25.4c-9.58-.23-36.11-.23-45.81,0-7.96.12-12.24,4.16-13.28,12.24-.11.92-.35,1.85-.46,3.12-9.93.69-22.05-2.77-34.51-9.47-24.93-13.28-49.98-26.67-75.26-39.59-28.28-14.43-57.72-17.66-88.08-6.81-17.43,6.23-34.75,12.58-51.94,19.05-.23.11-4.56,1.78-4.8,1.9l20.71,20.71c5.43-1.96,14.33-6.68,19.53-8.52,11.66-4.16,23.2-9.12,35.09-12.24,17.78-4.5,35.55-2.42,51.94,5.77,26.78,13.28,53.21,27.24,79.53,41.21,13.62,7.39,27.82,12.35,43.29,13.39,3.69.23,4.96,1.62,4.96,5.31-.11,31.05,0,62.1-.11,93.15,0,1.73-.23,3.81-1.15,5.19-11.77,17.55-26.32,32.21-47.67,36.25-28.28,5.43-52.75-3.23-71.45-25.63-3.35-3.93-6.93-6.7-11.66-8.31-31.51-10.5-62.91-21.12-94.31-31.86-10.62-3.58-19.28-9.7-22.62-21.01-2.77-9-.23-17.08,6.23-23.55,6.81-7.04,15.35-8.89,24.59-6.12,26.43,8.2,52.75,16.62,79.19,25.05,10.5,3.35,21.01,6.7,31.63,9.93,7.73,2.42,14.66-.69,16.85-7.39,2.42-7.27-1.39-14.08-9.58-16.74-24.93-7.96-49.75-15.7-74.8-23.66l-58.18-13.74c-2.31.81-3.58,1.39-4.85,1.73-12.58,3.46-22.62,10.39-29.32,21.47,0,0,0,.12-.12.23-1.27,1.96-10.39,16.85-7.5,33.82.23,1.15.46,2.31.81,3.46.35,1.27.69,2.42,1.04,3.58h.12c6.81,20.43,22.16,31.97,42.71,38.32,4.73,1.39,9.47,3.46,14.31,4.73l1.62.58,30.47,10.39,7.85,2.65c8.2,2.89,16.51,5.66,24.82,8.31.58.23,1.15.35,1.73.58.69.23,1.27.46,1.73.69h.12c5.19,2.19,16.16,8.31,32.78,24.82l.12.12c4.62,2.42,9.23,4.85,13.74,7.27,0,0,15.01,7.27,36.36,6.81,1.15,0,2.31,0,3.58-.12,6.58-.12,13.39-.58,19.74-2.19,24.01-6.12,42.13-21.01,56.68-40.4,2.31-3.12,4.62-4.16,8.31-4.16,6.12,0,29.19.11,35.3,0v-25.4h-33.46v-109.75c5.75,0,28.13-.12,33.44.23Z"/>
    <path class="cls-3" d="m446.81,168.25c.01,6.95-5.37,12.41-12.31,12.5-7.1.09-12.88-5.66-12.73-12.68.14-6.84,5.77-12.29,12.66-12.24,6.95.05,12.37,5.48,12.38,12.42Z"/>
  </g>
  <path class="cls-1" d="m624.95,42.85c-10.74-.11-21.47,0-32.21,0-13.27,0-26.43-.11-39.71,0-8.66.12-13.39,4.85-13.74,13.39-.12,1.73-.23,3.35,0,5.08.12.69.12,1.27,0,1.73v163.68c28.51.23,56.91.11,85.42.11,9.7,0,14.54-4.96,14.54-14.54V57.16c.01-9.35-4.84-14.2-14.3-14.31Zm-11.08,158.83h-44.9c-1.15,0-2.31-.12-4.16-.23-.12-1.85-.35-3.58-.35-5.43,0-40.75.12-81.5-.11-122.36,0-4.39,1.15-5.77,5.66-5.66,12.93.23,25.86,0,38.79,0,1.62,0,3.23.23,5.08.35v133.33h-.01Z"/>
  <g>
    <path class="cls-1" d="m543.8,469.14c-13.16-3.92-26.09-2.54-39.13,1.15-28.51,8.08-57.14,15.93-85.77,23.89-2.31.69-3.92,1.04-5.19-1.85-7.16-17.43-20.78-27.59-37.98-33.48-29.55-10.04-59.1-19.97-88.65-30.13-2.65-.92-5.31-2.77-7.27-4.85-26.55-27.93-58.76-38.79-96.39-30.7-23.78,5.19-41.56,20.43-56.1,39.48-2.77,3.69-5.43,4.96-9.93,4.96-5.89,0-11.77-.12-17.66,0v25.16c.11-.11.35,0,.58,0,3.46.23,7.04.35,10.5-.11,5.54-.69,6.35,1.73,6.35,6.58-.23,16.39-.11,32.78-.11,49.29s-.23,32.21.11,48.25c.12,5.19-1.62,6.81-6.58,6.23-3.46-.35-7.04-.35-10.5,0-.46,0-.81.11-1.27.11v25.05h29.67c5.66,0,10.27-2.08,12.58-7.62.92-2.31,1.15-5.08,1.85-8.31,10.85.35,20.89,2.89,30.13,7.73,7.27,3.81,14.31,8.2,21.59,12,22.86,11.66,45.37,24.13,68.8,34.52,27.7,12.12,55.64,10.16,84.15-.46,62.56-23.43,125.59-45.37,188.39-67.76,12.12-4.27,22.05-11.31,30.24-21.01,24.68-29.64,5.87-69.81-22.41-78.12Zm3.11,61.53c-4.62,5.54-11.2,10.62-18.01,13.04-62.45,22.86-125.25,45.02-187.93,67.53-11.2,4.16-22.28,8.31-34.4,8.54-16.62.23-31.74-4.62-46.29-12.24-22.05-11.54-44.33-22.86-66.26-34.98-14.66-8.2-30.01-14.08-46.87-15.35-3.93-.35-4.96-1.85-4.96-5.66.12-15.47.12-30.82.12-46.29s-.12-30.24,0-45.37c0-2.08.11-4.62,1.15-6.23,12-18.01,27.01-32.9,49.06-36.59,27.7-4.62,51.71,3.92,70.07,25.86,3.23,3.92,6.81,6.7,11.66,8.31,30.94,10.39,61.99,20.66,92.81,31.51,6,2.19,12,5.43,16.85,9.7,9.35,8.2,10.85,20.43,4.85,30.59-6,10.04-17.43,14.31-29.32,10.62-23.89-7.5-47.67-15.12-71.45-22.74-13.39-4.16-26.78-8.66-40.29-12.47-9.7-2.77-18.01,6.23-15.12,15.7,1.5,4.96,5.31,7.39,10.04,8.89,34.4,10.85,68.8,21.59,103.08,32.67,11.31,3.69,22.39,6.23,34.05,3,17.43-4.73,29.44-15.7,35.09-32.9,1.27-3.69,3.12-5.31,6.7-6.35,30.94-8.43,61.76-17.2,92.69-25.51,5.43-1.39,11.31-2.31,16.85-1.62,18.72,2.09,27.84,23.68,15.83,38.34Z"/>
    <path class="cls-1" d="m199.49,483.67c6.85,0,12.5,5.56,12.57,12.36.06,6.73-5.6,12.57-12.32,12.73-6.89.16-12.77-5.74-12.72-12.74.05-6.92,5.53-12.35,12.47-12.35Z"/>
  </g>
  <path class="cls-3" d="m100.08,467.06l-.12-29.44c-28.28-.12-56.56-.12-84.84,0-10.16,0-15.12,4.62-15.12,13.97v156.18c0,8.54,4.62,13.62,13.28,13.74,24.47.23,49.06.23,73.53,0,8.31-.11,12.81-4.96,13.16-13.39.12-1.73,0-3.35,0-5.19v-38.9c.12-17.66,0-35.32,0-53.1,0-8.2.12-16.51.12-24.7v-5.08c0-4.27,0-8.66-.12-12.93-.01-.46-.01-.81.11-1.16Zm-25.28,125.02c0,2.54-.35,4.27-3.46,4.27-14.78,0-29.44,0-44.21-.12-.46,0-.92-.35-1.62-.58v-132.86h8.89c11.89,0,23.89.12,35.78,0,3.46-.11,4.62,1.04,4.62,4.5v124.79h0Z"/>
</svg>