<?xml version="1.0" encoding="UTF-8"?>
<svg id="Capa_1" data-name="Capa 1" xmlns="http://www.w3.org/2000/svg" viewBox="0 0 639.59 642.97">
  <defs>
    <style>
      .cls-1 {
        fill: #fff;
      }

      .cls-2 {
        fill: #00a472;
      }

      .cls-3 {
        fill: #2dad7c;
      }

      .cls-4 {
        fill: #005641;
      }
    </style>
  </defs>
  <g id="Capa_2" data-name="Capa 2">
    <path class="cls-4" d="m637.75,325.86c-8.05-67.69-34.14-127.27-79.04-178.33-12.09-13.75-25.34-26.27-39.57-37.73-5.78-4.65-11.35-4.46-15.06.28-3.55,4.54-2.33,10.26,3.2,14.94,1.13.95,2.29,1.88,3.43,2.83,35.62,29.58,63.2,65.47,82.53,107.75,9.23,20.2,16.21,41.18,20.78,64.12-19.63-18.13-41.63-26.73-67.26-25.07-25.83,1.68-46.46,13.57-63.51,33.94-8.1-98.78-38.31-185.53-121.22-245.92,5.31-.79,10.16.77,15.03,1.72,32.11,6.27,62.43,17.49,90.91,33.78,2.93,1.67,5.92,3.33,9.56,2.09,4.01-1.37,6.49-4.12,6.92-8.28.57-5.5-2.92-8.4-7.28-10.82-72.33-40.35-149.19-52.49-229.43-33.25-102.08,24.48-175.21,86.38-219.77,182.12C8.98,270.87.26,314.29,0,359.41c-.03,4.2.2,8.18,4.06,10.77,3.02,2.03,6.22,2.45,9.58.72,4.62-2.39,5.44-6.57,5.62-11.28,1.31-33.31,26.15-60.94,58.64-65.33,32.6-4.41,63.8,15.47,73.9,47.2,2.07,6.51,3.05,13.22,3.25,20.09.18,6.36,4.29,10.51,9.69,10.43,5.18-.08,8.88-4.03,9.38-10.05.11-1.28.08-2.56.21-3.83,2.67-27.57,16.13-47.93,41.39-58.75,25.26-10.8,78.75,1.58,90.82,46.84,1.76,6.6,3.05,13.22,3.25,20.09.09,2.86.96,5.26,2.39,7.05,1.75,2.18,4.33,3.42,7.3,3.38,3.48-.05,6.26-1.88,7.89-4.89.79-1.46,1.33-3.19,1.49-5.17.11-1.28.08-2.56.21-3.83,1.65-16.97,5.86-35.9,21.16-49.96,29.83-27.38,76.9-24.64,101.17,7.84,9.21,12.33,13.61,26.26,14.1,41.58.19,5.83,3.55,9.03,9.06,9.61,5.11.54,9.33-3.65,9.98-9.43.14-1.27.09-2.56.14-3.83,1.54-40.25,40.07-71.35,79.22-63.96,32.71,6.18,54.51,31.63,56.48,65.92.41,7.21,4.4,11.67,10.16,11.36,5.58-.3,8.93-4.65,9.01-11.65.14-11.53-.46-23.04-1.82-34.47Zm-463.72-21.9c-1.06-7.45.6-14.21,1.41-20.91,2.39-19.87,6.22-39.48,11.64-58.77,2.43-8.69-3.2-15.33-11.08-13.47-4.47,1.06-6.31,4.43-7.47,8.58-7.3,26.32-11.91,53.12-14.07,80.35-.17,2.12-.42,4.24-.7,6.36-.07.54-.41,1.05-.67,1.65-33.6-40.82-91.92-44.74-129.93-9.01C51.38,159.21,173.31,72.4,273.83,63.04c-7.43,6.11-14.73,11.78-21.66,17.86-28.45,24.99-49.96,55.22-65.79,89.66-3.28,7.14-1.84,12.57,3.87,15.15,5.33,2.41,10.3.04,13.46-6.86,21.44-46.73,53.65-83.73,97.6-110.15,1.58-.95,3.2-1.84,5.49-3.14v239.99c-38.56-43.3-99.46-38.95-132.78-1.58Zm153.3,1.3c-.9-4.95-1.21-230.28-.24-239.68,31.96,17.92,58.26,41.6,79.15,71.37,34.94,49.8,49.19,106.46,54.48,167.97-34.58-38.61-95.4-42.39-133.39.34Z"/>
    <g>
      <path class="cls-3" d="m112.3,392.27c42.82-.1,75.64,36.89,69.66,78.49-.62,4.31-3.59,6.85-7.51,6.43-3.96-.41-6.44-3.31-5.89-7.82,1.02-8.26.59-16.34-1.82-24.32-8.28-27.43-36.8-44.07-65.91-38.44-27.69,5.35-47.72,31.68-44.7,59.32,2.57,23.5,15.58,39.84,38.18,47.4,22.87,7.66,43.27,1.97,60.11-15.14,4.9-4.97,8.26-5.98,11.71-3.07,3.61,3.05,3.24,7.03-1.72,12.06-20.44,20.77-45.25,27.87-73.19,19.08-28.27-8.89-44.97-28.83-48.38-57.89-4.82-40.88,27.67-76.01,69.48-76.11Z"/>
      <path class="cls-3" d="m542.53,436.34c-.04-16.29-11.53-27.67-28.08-27.74-17.78-.08-35.57-.07-53.35,0-16.65.06-28.1,11.27-28.2,27.57-.07,10.97-.02,21.95-.02,32.92s-.06,21.95.02,32.92c.11,16.28,11.53,27.46,28.24,27.53,17.63.09,35.27.08,52.91,0,16.94-.07,28.45-11.32,28.48-27.81.04-21.8.04-43.6,0-65.4Zm-28.74,79.9c-17.34.04-34.69.04-52.03,0-10.12-.02-15.3-5.22-15.32-15.27-.02-10.69,0-21.37,0-32.06s-.03-21.66,0-32.5c.04-9.11,5.44-14.5,14.72-14.52,17.64-.06,35.28-.05,52.92,0,9.46.03,14.93,5.47,14.94,14.82.03,21.52.03,43.04,0,64.55,0,9.61-5.42,14.95-15.23,14.98Z"/>
      <path class="cls-3" d="m171.38,439.86c.03.27.11.56.05.81-.09.35-.29.89-.74.38-1.15-1.28-1.44-2.64-.19-4.05,1.05.74.18,2.03.88,2.87Z"/>
      <path class="cls-3" d="m126.56,457.99c-1.78-1.05-3.67-1.96-5.59-2.74-1.27-.52-1.84-1.16-1.8-2.57.09-3.6.03-7.2.03-10.94,2.78.24,4.33,1.99,6.27,2.95,3.36,1.66,6.41,1.21,8.8-1.71,2.18-2.66,1.69-6.72-1.12-9.07-2.28-1.91-4.83-3.6-7.68-4.41-4.34-1.23-7.24-2.76-6.48-8.18.47-3.36-2.27-5.61-5.85-6.01-3.63-.39-7.24,1.62-6.95,4.66.62,6.6-3.2,9.13-8.12,11.43-.53.25-.93.73-1.37,1.12-9.91,8.98-7.7,22.38,4.71,29.08,1.54.83,4.19.67,4.25,3.25.11,5.02.03,10.03.03,15.29-2.95-1.02-4.69-2.58-6.48-4.12-3.34-2.88-7.35-2.89-9.98-.15-2.59,2.71-2.31,6.68.75,9.8,2.72,2.78,5.82,5.24,9.55,6.36,4.5,1.33,6.98,3.18,6.35,8.41-.44,3.62,3.01,6.28,6.61,6.27,3.59,0,6.89-2.65,6.56-6.32-.41-4.47,1.48-6.05,5.45-7.64,7.52-3.02,12.35-8.68,12.93-16.97.58-8.29-4.03-13.75-10.85-17.79Zm-21.03-11.06c-.96-.76-.68-1.88-.88-2.87.21-.43.29-1.82.93-.37.4.91,0,2.15-.04,3.24Zm13.83,33.72v-11.56c2.56,1.53,4.53,2.92,4.47,5.75-.06,2.72-1.84,4.27-4.47,5.8Z"/>
      <path class="cls-3" d="m487.61,469.6c5.97,0,11.95-.07,17.92.03,4.91.08,7.81,2.6,7.83,6.55.02,3.91-2.96,6.69-7.76,6.73-12.09.11-24.19.11-36.28,0-4.94-.04-7.73-2.63-7.76-6.66-.03-4.15,2.63-6.54,7.69-6.62,6.11-.11,12.23-.03,18.36-.03Z"/>
      <path class="cls-3" d="m481.57,442.65c4.18,0,8.35-.09,12.52.03,4.16.11,6.99,2.74,7.08,6.36.11,3.63-2.64,6.7-6.7,6.79-8.79.18-17.59.18-26.39,0-4.09-.09-6.66-3.09-6.54-6.85.12-3.77,2.73-6.19,7.05-6.29,4.33-.11,8.65-.03,12.98-.03Z"/>
    </g>
    <path class="cls-2" d="m345.57,380v156.93c0,.5-.04.98-.12,1.45h.12c-.04,36.24-29.42,65.6-65.66,65.6s-64.92-28.68-65.63-64.32v-.02c-.03-.44-.04-.88-.04-1.32s0-.88.04-1.32v-.02c.68-13.55,11.64-24.41,25.24-24.9.32-.02.66-.03.99-.03,6.27,0,12.02,2.2,16.54,5.87,5.94,4.82,9.73,12.16,9.73,20.4,0,7.25,5.87,13.13,13.13,13.13s13.1-5.85,13.13-13.07h.12c-.08-.47-.12-.95-.12-1.45v-156.93c0-4.83,3.91-8.76,8.76-8.76,2.42,0,4.61.98,6.19,2.57s2.57,3.77,2.57,6.19v156.93c0,.5-.04.98-.12,1.45h.12c-.04,16.9-13.74,30.58-30.64,30.58-9.09,0-17.26-3.96-22.86-10.24-4.84-5.42-7.78-12.56-7.78-20.4,0-4.83-3.92-8.76-8.76-8.76s-8.51,3.68-8.75,8.31c0,.15,0,.3,0,.45s0,.3,0,.45c.08,9.52,2.92,18.36,7.77,25.79,8.59,13.19,23.46,21.91,40.38,21.91,26.57,0,48.12-21.53,48.15-48.09h.12c-.08-.47-.12-.95-.12-1.45v-156.93c0-4.83,3.92-8.76,8.76-8.76,2.42,0,4.61.98,6.19,2.57s2.57,3.77,2.57,6.19Z"/>
  </g>
  <rect class="cls-1" x="319.79" width="0" height="38.99"/>
  <rect class="cls-1" x="283.8" y="603.99" width="0" height="38.99"/>
</svg>