<?xml version="1.0" encoding="UTF-8"?>
<svg id="Capa_1" data-name="Capa 1" xmlns="http://www.w3.org/2000/svg" viewBox="0 0 642.53 642.97">
  <defs>
    <style>
      .cls-1 {
        fill: #00a374;
      }

      .cls-2 {
        fill: #05c68a;
      }

      .cls-3 {
        fill: #015646;
      }
    </style>
  </defs>
  <g>
    <path class="cls-3" d="m641.31,301.5c-10.85-35.9-57.37-46.75-83.57-19.85-13.85,14.2-27.59,28.74-41.67,42.71-11.66,11.54-23.89,22.51-36.13,33.94-15.24-14.08-22.74-16.97-45.37-16.97-42.36,0-84.73.12-127.09,0-2.89,0-6.12-.35-8.77-1.39-22.74-8.66-46.17-12.35-70.41-10.74-53.45,3.69-104.57,37.32-133.77,82.11l20.55,14.66c21.01-33.36,60.01-63.87,98.91-70.11,27.13-4.27,53.68-1.73,79.3,8.89,3.12,1.39,6.81,1.62,10.27,1.62,45.37.12,90.61.12,135.98.12,10.16-.12,18.47,3.12,24.01,11.89,9.47,15.12.35,35.09-17.32,37.75-2.42.46-4.96.46-7.5.46-31.4.12-62.91,0-94.31.12-2.42,0-4.73,0-7.04.35-5.89.92-10.16,6-10.27,11.89-.12,5.89,3.81,11.08,9.7,12.35,1.73.35,3.69.58,5.42.58,32.9,0,65.68.12,98.46-.12,24.93-.11,44.44-15.01,50.21-38.09,1.15-4.5,1.62-9.35,1.5-13.97-.12-3.69,1.04-6.12,3.58-8.77,26.32-26.9,52.52-53.91,78.84-80.8,10.04-10.27,24.93-11.2,35.21-2.31,10.5,9,11.66,24.36,2.31,35.55-23.89,28.86-48.02,57.49-72.15,86.23-10.97,13.04-22.28,25.97-32.9,39.25-18.12,22.97-42.13,33.13-70.88,33.13-53.91.12-107.81.12-161.72,0-12.7,0-24.7,2.31-35.32,9.23-5.08,3.23-9.47,7.39-14.08,11.31-.69.58-12.2,11.26-12.78,11.83l15.35,20.2,10.93-10.22c.92-.69,1.73-1.5,2.54-2.42,9.81-10.97,21.93-15.01,36.71-14.89,51.37.35,102.74.12,154.1.12,6.93,0,14.08-.12,21.01-1.04,27.13-3.58,50.68-14.66,68.68-35.67,20.32-23.55,40.06-47.56,60.14-71.45,16.28-19.51,32.67-39.02,48.94-58.52,7.5-8.89,12.7-18.7,11.43-31.05-.69-5.9.7-12.37-1.03-17.91Z"/>
    <path class="cls-3" d="m299.64,426.93c.06,6.89-5.36,12.54-12.19,12.72-6.88.18-12.88-5.74-12.84-12.66.04-6.81,5.65-12.33,12.52-12.33,6.97,0,12.45,5.37,12.51,12.27Z"/>
  </g>
  <g>
    <path class="cls-2" d="m374.66,276.07c-76.19-.07-138.07-61.88-138.09-137.95C236.55,61.85,298.63-.09,375.02,0c76.41.1,138.28,62.16,138.03,138.47-.26,76.19-62.1,137.68-138.39,137.6Zm.04-25.13c62.55.04,113.17-50.46,113.17-112.88s-50.51-112.82-112.66-112.92c-62.53-.1-113.39,50.39-113.48,112.67-.09,62.39,50.54,113.1,112.97,113.13Z"/>
    <path class="cls-1" d="m384.86,163.09c-.04-7.19-5.49-11.96-14.09-12.56-16.05-1.12-27.45-9.15-33.52-23.93-7.4-18.03.57-38.37,18.26-47.17,3.43-1.7,4.66-3.59,4.34-7.24-.3-3.32-.19-6.69.01-10.03.42-6.81,5.9-11.95,12.48-11.93,6.58.02,13.1,5.3,12.29,11.93-1.33,10.92,2.07,17.89,12.46,21.76,2.5.93,4.56,3.36,6.52,5.4,4.67,4.84,4.8,11.96.5,16.83-4.32,4.9-11.28,5.73-16.77,1.91-2.47-1.71-4.7-3.79-7.28-5.32-5.56-3.3-11.14-3-15.47.5-4.14,3.34-5.76,8.6-4.15,13.49,1.78,5.42,6,8.34,12.67,8.77,18.86,1.2,32.67,12.98,36.33,30.98,3.31,16.25-5.24,32.46-21.31,40.99-1.49.79-2.83,3.04-3.05,4.77-.47,3.62-.04,7.35-.19,11.02-.32,7.49-5.74,12.7-12.87,12.56-6.9-.14-12.72-5.41-12.02-12.66.95-9.88-1.48-16.41-11.39-20.39-4.63-1.86-8.36-6.58-11.8-10.6-4.62-5.39-3.79-12.6,1.22-17.13,5.04-4.55,11.83-4.24,17.27.4,3.89,3.32,7.74,7.11,12.3,9.15,8.28,3.72,17.31-2.7,17.26-11.5Z"/>
  </g>
  <path class="cls-1" d="m217.09,520.13s-4.62-4.62-11.89-12.01c-1.85-1.96-3.69-3.92-5.77-5.89-5.77-6.12-11.77-12.12-17.66-18.01-3.92-3.93-7.85-7.85-11.77-11.66-5.19-5.43-10.39-10.62-15.7-15.7l-31.51-31.51c-10.85-10.16-20.66-15.12-26.67-17.55-.81.46-1.62.58-2.31.58-12.58-.58-22.86,3.69-31.63,12.47-18.93,19.05-37.86,37.86-56.79,56.91-7.16,7.16-7.16,13.74-.12,20.89,46.06,46.29,92,92.58,138.06,138.75,7.27,7.39,13.62,7.39,20.89.23,19.62-19.16,39.13-38.44,58.64-57.72,7.39-7.39,11.54-15.93,11.66-25.51-.58-22.38-17.43-34.27-17.43-34.27Zm-11.31,41.21c-16.85,16.97-34.05,33.59-50.44,49.87-41.56-40.98-82.88-81.84-124.9-123.28,10.27-10.16,20.09-19.85,29.9-29.55,6.7-6.69,13.27-13.39,19.85-19.97,6.7-6.58,13.51-6.58,20.2.12,34.75,34.51,69.38,69.14,104.12,103.77,6.23,6.35,6.92,13.27,1.27,19.04Z"/>
</svg>