<?xml version="1.0" encoding="UTF-8"?>
<svg id="Capa_1" data-name="Capa 1" xmlns="http://www.w3.org/2000/svg" viewBox="0 0 646.4 646.42">
  <defs>
    <style>
      .cls-1 {
        fill: #05c68a;
      }

      .cls-2 {
        fill: #015646;
      }

      .cls-3 {
        fill: #00b581;
      }
    </style>
  </defs>
  <path class="cls-1" d="m441.12,275.3h-235.6c-11.77,0-16.16,4.39-16.16,16.16v235.25c0,11.77,4.39,16.16,16.04,16.16h235.71c11.43,0,15.81-4.39,15.81-15.93v-235.6c.01-11.53-4.38-16.04-15.8-16.04Zm-131.02,241.84h-95.23v-95h95.23v95Zm0-120.86h-95v-95.23h95v95.23Zm121.09,121.09h-95v-95.12h95v95.12Zm.23-121.32h-95.12v-95h95.12v95Z"/>
  <path d="m543.85,282.11c-.81-.58-1.62-1.27-2.42-1.85v-.12l2.42,1.97Z"/>
  <g>
    <path class="cls-3" d="m632.04,621.14h-53.91v-113.01c0-1.85.12-3.69-.12-5.54-.81-6.69-6.23-11.54-12.7-11.43s-11.66,4.96-12.35,11.66c-.23,1.85-.12,3.69-.12,5.54v106.08c0,2.08-.23,4.16-.35,6.35H154.03v-113.93c0-1.96.11-4.04-.12-6-.92-6.46-6.35-10.97-12.58-10.97-6.23.12-11.54,4.73-12.35,11.2-.23,1.96-.23,4.04-.23,6v113.7h-35.21v-6.12c0-98.81,0-233.4-.11-332.21l-25.63,16.97v321.71H14.7c-8.77,0-14.54,4.96-14.54,12.47-.12,7.62,5.66,12.81,14.31,12.81h617.45c8.66,0,14.43-5.19,14.31-12.81.01-7.27-5.76-12.47-14.19-12.47Z"/>
    <path class="cls-3" d="m154,452.97c-.11,6.86-5.73,12.47-12.52,12.5-6.97.03-12.71-5.84-12.61-12.91.1-7.13,5.87-12.62,13.01-12.39,6.9.23,12.24,5.87,12.12,12.8Z"/>
    <path class="cls-3" d="m565.3,472.16c-6.82-.11-12.39-5.81-12.36-12.64.04-6.82,5.68-12.46,12.5-12.49,7.01-.03,12.8,5.89,12.61,12.88-.19,6.83-5.96,12.36-12.75,12.25Z"/>
    <path class="cls-3" d="m578.13,298.27l-25.16-22.97c-.12,31.4-.12,97.89-.12,129.4,0,1.85-.12,3.69.12,5.54.81,6.7,6.12,11.54,12.7,11.43,6.23,0,11.43-4.62,12.24-11.08.35-2.08.23-4.04.23-6.12v-106.2h-.01Z"/>
  </g>
  <path class="cls-2" d="m638.39,242.87c-22.97-18.01-45.83-35.9-68.91-53.68-3-2.31-4.04-4.73-4.04-8.43.12-39.71.12-79.42.12-119.13-.12-9.81-4.96-14.78-14.54-14.78h-69.14c-9.81,0-14.66,4.85-14.78,14.54-.12,12.12,0,24.24,0,36.36v11.2c-3.12-2.31-5.19-3.93-7.27-5.54-42.36-33.01-84.61-66.03-126.98-99.04-7.5-5.89-11.89-5.77-19.39,0C211.53,83.9,109.72,163.44,7.91,242.97c-10.04,7.85-10.5,14.78-1.5,23.78,12.93,12.81,25.97,25.51,38.55,38.67,6,6.23,12,10.39,20.43,5.77l31.98-25.05,7.85-6.12c71.34-55.64,142.56-111.16,213.78-166.92,3.23-2.54,5.19-2.54,8.43,0,71.22,55.75,142.68,111.51,214.01,167.03v.12c.81.58,1.62,1.27,2.42,1.85h.12c1.62,1.27,3,2.42,4.62,3.69.35.35.69.58,1.04.92l.23.23,28.97,23.43c10.97,4.5,13.74,3.81,21.93-4.5,13.04-12.93,25.97-25.86,38.9-38.9,9.34-9.33,8.99-16.02-1.28-24.1Zm-145.56-170.5h47.1v93.5c-4.96-3.81-9.35-7.16-13.62-10.5-10.27-7.96-20.55-15.81-30.59-24.01-1.62-1.27-3.12-3.69-3.23-5.66-.23-16.85-.11-33.59-.11-50.44-.01-.81.22-1.62.45-2.89Zm95.92,209.51c-.81.69-4.04,0-5.43-1.04-18.01-13.85-35.78-27.94-53.68-41.9-65.45-51.02-130.79-102.04-196.24-153.06-8.08-6.35-12.47-6.23-21.01.46-82.88,64.64-165.76,129.29-248.53,194.16-3.69,2.89-5.66,2.54-8.66-.69-7.39-7.73-15.24-15.24-23.43-23.32,7.85-6.23,15.01-11.77,22.16-17.43C141.89,170.38,229.97,101.69,317.93,32.78c4.16-3.23,6.58-3.12,10.62.11,93.62,73.3,187.35,146.48,281.08,219.67,1.5,1.15,2.89,2.31,4.96,4.16-8.75,8.66-17.18,17.08-25.84,25.16Z"/>
</svg>