<?xml version="1.0" encoding="UTF-8"?>
<svg id="Capa_1" data-name="Capa 1" xmlns="http://www.w3.org/2000/svg" viewBox="0 0 642.53 642.97">
  <defs>
    <style>
      .cls-1 {
        fill: #fff;
      }

      .cls-2 {
        fill: #00a374;
      }

      .cls-3 {
        fill: #05c68a;
      }

      .cls-4 {
        fill: #015646;
      }
    </style>
  </defs>
  <g>
    <g>
      <path class="cls-2" d="m592.53,580.26c-3.66-.2-7.21,0-11.58,0v-274.23l-24.99,1.72c-.11,77.43-.11,190.29,0,267.72,0,3.35-.81,4.88-4.47,4.78-3.76-.11-7.41-.11-11.38-.11h-38.41c-.61.11-1.32.11-2.03.11-10.57-.11-21.24-.11-31.91-.11H93.59q-6.81,0-6.81-6.81c0-73.67.11-182.88-.11-256.65l-24.9-.91c-.11,74.18-.11,183.69-.11,257.97v6.4c-2.95,0-5.18,0-7.52.11-2.44,0-4.98,0-7.41.4-6,1.22-10.16,6.3-10.26,11.99,0,5.8,4.17,10.98,10.06,12.2,2.64.51,5.38.51,8.03.51h533.48c1.52,0,3.05,0,4.47-.11,8.13-.31,13.61-5.49,13.61-12.5,0-7-5.48-12.19-13.61-12.49Z"/>
      <path class="cls-2" d="m25.28,592.65c.05,6.82-5.42,12.41-12.27,12.54-6.9.13-12.94-5.76-12.86-12.56.08-6.62,5.89-12.28,12.63-12.29,6.81-.02,12.44,5.53,12.5,12.3Z"/>
      <path class="cls-2" d="m617.39,592.85c-.04-6.81,5.45-12.4,12.3-12.52,6.92-.11,12.94,5.78,12.84,12.58-.1,6.61-5.93,12.27-12.66,12.27-6.82,0-12.44-5.54-12.48-12.33Z"/>
    </g>
    <path class="cls-4" d="m642.42,225.31c0-3.97-1.02-8.33-2.85-11.89-18.59-37.09-37.4-73.97-55.99-111.07-1.63-3.15-2.44-6.91-2.44-10.47-.31-12.81-.11-25.71-.2-38.62,0-10.77-4.98-15.65-15.65-15.65H77.43c-10.77,0-15.65,4.88-15.75,15.65,0,12.5.31,25.1-.11,37.6-.2,4.27-1.22,8.94-3.15,12.81-18.5,36.89-37.29,73.67-55.79,110.56-1.52,3.05-2.34,6.71-2.44,10.06-.31,9.35-.2,18.7-.11,28.05.51,33.43,20.63,60.97,51.83,70.93,1.32.4,2.64.81,4.06,1.22.81.2,1.42.4,2.03.71h.11c6.81,1.72,18.5,3.46,32.51.2.81-.31,1.72-.61,2.84-.91,3.66-.91,7.12-2.03,10.47-3.46.4-.11.71-.31,1.02-.4,10.98-4.88,20.32-12.4,28.05-22.25.71-.91,1.42-1.83,2.14-2.64.2-.31.61-.4,1.32-.81,15.14,20.53,35.57,32.11,61.27,32.11,25.81.1,46.23-11.49,61.88-32.62,15.55,21.13,35.97,32.72,61.78,32.62,25.61,0,45.93-11.38,61.58-32.62,15.44,20.83,35.77,32.62,61.48,32.62,25.81.1,46.34-11.28,62.09-32.72,7.21,9.96,15.24,18.09,25.61,23.27,5.69,2.74,11.89,4.98,17.89,7.01,0,0,.2.11.51.2.2.11.4.11.61.2.4.11.81.2,1.12.4.11.11.2.11.31.11,4.57,1.63,15.35,3.97,31.1.11,1.32-.61,3.15-1.02,5.89-1.83,26.73-7.21,49.29-33.23,51.92-60.87,1.2-12.52,1-25.12.91-37.62Zm-517.13-10.26c-1.22,4.27-1.52,8.84-1.72,13.32-.4,10.06.11,20.12-.71,30.08-2.14,26.22-27.13,45.83-53.24,43.18-23.68-2.34-44-22.15-44.41-49.18-.11-8.23-.11-16.46.1-24.59,0-2.14.71-4.27,1.63-6.2,17.68-34.85,35.36-69.71,53.04-104.67,1.22-2.34,2.23-4.17,5.49-4.06,22.56.11,45.12,0,67.68.11.71,0,1.32.2,2.85.4-3.76,12.4-7.41,24.39-10.98,36.38-6.61,21.75-13.32,43.39-19.72,65.24Zm129.15-66.45c-3.15,34.25-8.13,68.39-7.52,102.93.4,24.28-13.92,42.07-36.99,48.88-27.23,8.03-58.33-13.1-60.46-41.46-.81-10.98-1.52-22.15-.51-33.02.91-8.84,4.37-17.48,7.01-26.02,8.33-27.54,16.76-54.98,25.1-82.51.81-2.74,1.72-4.57,5.29-4.57,22.76.2,45.43.11,68.19.11.81,0,1.63.2,3.35.4-1.21,12.08-2.33,23.67-3.45,35.26Zm77.33,152.32c-28.05,6.3-57.01-13.82-58.84-42.68-1.22-18.59.1-37.4,1.52-55.99,2.03-27.33,5.29-54.57,8.03-81.8.71-7.52.61-7.52,8.23-7.52h30.59c10.87,0,21.75.2,32.62-.11,4.37-.11,5.8,1.32,6.09,5.58,2.95,29.88,6.3,59.75,8.84,89.72,1.22,14.84,1.63,29.77,1.42,44.61-.2,23.9-16.06,43.2-38.51,48.18ZM94.1,87.82q-7.32,0-7.32-7.32c0-4.17.31-8.43,0-12.6-.4-4.27,1.42-5.69,5.49-5.18.61.11,1.32,0,1.93,0h461.64c0,8.03,0,15.35-.2,22.66,0,.81-1.42,1.93-2.44,2.23-1.42.4-3.05.2-4.47.2H94.1Zm399.25,168.79c-.51,20.93-16.87,38.51-36.48,43.89-27.03,7.41-57.52-12.7-60.36-40.65-.51-4.78-1.02-9.66-.91-14.43,1.02-32.11-4.47-63.71-7.21-95.41-1.02-11.99-2.34-23.98-3.66-36.68,2.14-.2,3.55-.4,4.98-.4,21.95,0,43.8.11,65.74-.11,3.66,0,5.29,1.22,6.3,4.67,10.06,33.74,21.13,67.27,30.18,101.31,3.15,11.9,1.83,25.11,1.42,37.82Zm121.43,11.58c-7.01,21.85-27.84,34.75-48.78,33.63-26.62-1.42-44.61-22.36-46.34-43.89-.31-3.86-.71-7.72-.51-11.58,1.32-17.78-2.03-34.65-7.63-51.63-8.23-24.79-15.44-50.1-23.17-75.2-.51-1.83-.91-3.76-1.63-6.3,2.03-.11,3.66-.31,5.29-.31,21.24,0,42.48.11,63.71,0,3.46-.11,5.38.91,7.01,4.06,17.58,34.96,35.36,69.81,53.04,104.67.61,1.22,1.52,2.54,1.52,3.66-.29,14.33,1.95,28.86-2.52,42.88Z"/>
    <g>
      <path class="cls-3" d="m513.16,363.92H129.26c-13.11,0-17.38,4.27-17.38,17.48v166.14c0,12.7,4.47,17.18,17.27,17.18h268.98q7.12,0,7.12,6.91v8.74h25.41v-78.45c3.55,0,7.01.11,10.47,0,8.33-.2,14.12-5.29,14.12-12.5.1-7.21-5.69-12.4-14.02-12.6-3.35-.11-6.6,0-10.37,0v-87.49h74.79v5.69c0,61.78,0,123.66.11,185.35h24.99v-198.67c0-13.62-4.07-17.78-17.59-17.78Zm-376.29,30.69c0-4.27,1.12-5.69,5.58-5.69,25.1.2,50.2.11,75.3.11,1.42,0,2.95.2,3.66.2-28.05,27.94-56.09,56.09-84.24,84.03,0-.71-.2-2.34-.2-3.86,0-24.9.1-49.89-.11-74.79Zm268.47,139.72c0,4.17-1.32,5.29-5.38,5.29-85.86-.11-171.63-.11-257.4-.11-1.63,0-3.35-.11-5.49-.2,0-9.04-.1-17.78.11-26.42,0-1.42,1.42-2.95,2.54-4.06,39.02-39.02,78.05-78.05,117.06-117.06,1.12-1.12,2.74-2.54,4.06-2.54,13.52-.2,27.03-.11,41.46-.11-1.32,1.72-2.03,2.74-2.95,3.66-6.3,6.4-12.81,12.7-19.1,19.21-5.58,5.8-5.8,13.32-.91,18.39,5.18,5.29,12.7,5.18,18.7-.81,12.6-12.3,24.79-24.9,37.4-37.19,1.93-1.83,5.18-3.15,7.83-3.25,18.9-.2,37.8,0,56.7-.2,4.17,0,5.38,1.22,5.38,5.38-.1,46.65-.1,93.29,0,140.03Z"/>
      <path class="cls-3" d="m262.58,459.8c-6.71.03-12.46-5.66-12.51-12.36-.05-6.78,6.02-12.73,12.87-12.59,6.61.13,12.04,5.52,12.16,12.09.13,6.93-5.62,12.84-12.52,12.86Z"/>
    </g>
  </g>
  <rect class="cls-1" x="321.26" width=".14" height="37.62"/>
  <rect class="cls-1" x="321.25" y="605.35" width="0" height="37.62"/>
</svg>