<?xml version="1.0" encoding="UTF-8"?>
<svg id="Capa_1" data-name="Capa 1" xmlns="http://www.w3.org/2000/svg" viewBox="0 0 730.57 645.53">
  <defs>
    <style>
      .cls-1 {
        fill: #00a374;
      }

      .cls-2 {
        fill: #05c68a;
      }

      .cls-3 {
        fill: #015646;
      }
    </style>
  </defs>
  <g>
    <path class="cls-1" d="m673.72,617c-4.16-.23-8.2,0-13.17,0v-311.81l-28.42,1.96c-.12,88.04-.12,216.37,0,304.41,0,3.81-.92,5.55-5.08,5.43-4.27-.12-8.43-.12-12.94-.12h-43.67c-.69.12-1.5.12-2.31.12-12.02-.12-24.15-.12-36.28-.12H106.41q-7.74,0-7.74-7.74c0-83.77.12-207.94-.12-291.82l-28.31-1.04c-.12,84.35-.12,208.86-.12,293.32v7.28c-3.35,0-5.89,0-8.55.12-2.77,0-5.66,0-8.43.46-6.82,1.39-11.55,7.16-11.67,13.63,0,6.59,4.74,12.48,11.44,13.87,3,.58,6.12.58,9.13.58h606.59c1.73,0,3.47,0,5.08-.12,9.24-.35,15.48-6.24,15.48-14.21,0-7.96-6.23-13.86-15.47-14.2Z"/>
    <path class="cls-1" d="m28.74,631.09c.06,7.75-6.16,14.11-13.95,14.26-7.85.15-14.71-6.55-14.62-14.28.09-7.53,6.7-13.96,14.36-13.97,7.74-.02,14.15,6.29,14.21,13.99Z"/>
    <path class="cls-1" d="m701.99,631.32c-.05-7.74,6.2-14.1,13.98-14.23,7.87-.13,14.71,6.57,14.6,14.3-.11,7.52-6.74,13.95-14.39,13.95-7.75.01-14.14-6.3-14.19-14.02Z"/>
  </g>
  <path class="cls-3" d="m730.45,213.41c0-4.51-1.16-9.47-3.24-13.52-21.14-42.17-42.52-84.11-63.66-126.29-1.85-3.58-2.77-7.86-2.77-11.9-.35-14.56-.12-29.23-.23-43.91,0-12.25-5.66-17.79-17.79-17.79H88.04c-12.25,0-17.79,5.55-17.91,17.79,0,14.21.35,28.54-.12,42.75-.23,4.85-1.39,10.17-3.58,14.56C45.4,117.04,24.03,158.87,3,200.81c-1.73,3.47-2.66,7.63-2.77,11.44-.35,10.63-.23,21.26-.12,31.89.58,38.01,23.46,69.32,58.93,80.65,1.5.46,3,.92,4.62,1.39.92.23,1.62.46,2.31.81h.12c7.74,1.96,21.03,3.93,36.97.23.92-.35,1.96-.69,3.23-1.04,4.16-1.04,8.09-2.31,11.9-3.93.46-.12.81-.35,1.16-.46,12.48-5.55,23.11-14.1,31.89-25.3.81-1.04,1.62-2.08,2.43-3,.23-.35.69-.46,1.5-.92,17.22,23.34,40.44,36.51,69.67,36.51,29.35.11,52.57-13.06,70.36-37.09,17.68,24.03,40.9,37.2,70.25,37.09,29.12,0,52.22-12.94,70.02-37.09,17.56,23.69,40.67,37.09,69.9,37.09,29.35.11,52.69-12.83,70.6-37.2,8.2,11.32,17.33,20.57,29.12,26.46,6.47,3.12,13.52,5.66,20.34,7.97,0,0,.23.12.58.23.23.12.46.12.69.23.46.12.92.23,1.27.46.12.12.23.12.35.12,5.2,1.85,17.45,4.51,35.36.12,1.5-.69,3.58-1.16,6.7-2.08,30.39-8.2,56.04-37.78,59.04-69.21,1.37-14.23,1.14-28.56,1.03-42.77Zm-587.99-11.67c-1.39,4.85-1.73,10.05-1.96,15.14-.46,11.44.12,22.88-.81,34.2-2.43,29.81-30.85,52.11-60.54,49.1-26.92-2.66-50.03-25.19-50.49-55.92-.12-9.36-.12-18.72.11-27.96,0-2.43.81-4.85,1.85-7.05,20.1-39.63,40.21-79.26,60.31-119.01,1.39-2.66,2.54-4.74,6.24-4.62,25.65.12,51.3,0,76.95.12.81,0,1.5.23,3.24.46-4.27,14.1-8.43,27.73-12.48,41.36-7.52,24.73-15.14,49.34-22.42,74.18Zm146.85-75.56c-3.58,38.94-9.24,77.76-8.55,117.04.46,27.61-15.83,47.83-42.06,55.58-30.96,9.13-66.32-14.9-68.75-47.14-.92-12.48-1.73-25.19-.58-37.55,1.04-10.05,4.97-19.87,7.97-29.58,9.47-31.31,19.06-62.51,28.54-93.82.92-3.12,1.96-5.2,6.01-5.2,25.88.23,51.65.12,77.53.12.92,0,1.85.23,3.81.46-1.38,13.74-2.65,26.91-3.92,40.09Zm87.93,173.19c-31.89,7.16-64.82-15.71-66.9-48.53-1.39-21.14.11-42.52,1.73-63.66,2.31-31.08,6.01-62.05,9.13-93.01.81-8.55.69-8.55,9.36-8.55h34.78c12.36,0,24.73.23,37.09-.12,4.97-.12,6.59,1.5,6.93,6.35,3.35,33.97,7.16,67.94,10.05,102.02,1.39,16.87,1.85,33.85,1.62,50.72-.23,27.17-18.26,49.12-43.79,54.78ZM106.99,57.08q-8.32,0-8.32-8.32c0-4.74.35-9.59,0-14.33-.46-4.85,1.62-6.47,6.24-5.89.69.12,1.5,0,2.2,0h524.9c0,9.13,0,17.45-.23,25.77,0,.92-1.62,2.2-2.77,2.54-1.62.46-3.47.23-5.08.23H106.99Zm453.96,191.92c-.58,23.8-19.18,43.79-41.48,49.91-30.73,8.43-65.4-14.44-68.63-46.22-.58-5.43-1.16-10.98-1.04-16.41,1.16-36.51-5.08-72.44-8.2-108.49-1.16-13.63-2.66-27.27-4.16-41.71,2.43-.23,4.04-.46,5.66-.46,24.96,0,49.8.12,74.75-.12,4.16,0,6.01,1.39,7.16,5.31,11.44,38.36,24.03,76.49,34.32,115.19,3.58,13.53,2.08,28.55,1.62,43Zm138.07,13.17c-7.97,24.84-31.66,39.51-55.46,38.24-30.27-1.62-50.72-25.42-52.69-49.91-.35-4.39-.81-8.78-.58-13.17,1.5-20.22-2.31-39.4-8.67-58.7-9.36-28.19-17.56-56.96-26.34-85.5-.58-2.08-1.04-4.27-1.85-7.16,2.31-.12,4.16-.35,6.01-.35,24.15,0,48.3.12,72.44,0,3.93-.12,6.12,1.04,7.97,4.62,19.99,39.75,40.21,79.38,60.31,119.01.69,1.39,1.73,2.89,1.73,4.16-.33,16.29,2.22,32.81-2.87,48.76Z"/>
  <g>
    <path class="cls-2" d="m583.48,371.01H146.97c-14.91,0-19.76,4.85-19.76,19.87v188.91c0,14.44,5.08,19.53,19.64,19.53h305.84q8.09,0,8.09,7.86v9.94h28.89v-89.2c4.04,0,7.97.12,11.9,0,9.47-.23,16.06-6.01,16.06-14.21.11-8.2-6.47-14.1-15.94-14.33-3.81-.12-7.51,0-11.79,0v-99.48h85.04v6.47c0,70.25,0,140.61.12,210.75h28.42v-225.89c-.01-15.49-4.63-20.22-20-20.22Zm-427.85,34.89c0-4.85,1.27-6.47,6.35-6.47,28.54.23,57.08.12,85.62.12,1.62,0,3.35.23,4.16.23-31.89,31.77-63.78,63.78-95.78,95.55,0-.81-.23-2.66-.23-4.39,0-28.31.11-56.73-.12-85.04Zm305.26,158.87c0,4.74-1.5,6.01-6.12,6.01-97.63-.12-195.15-.12-292.67-.12-1.85,0-3.81-.12-6.24-.23,0-10.28-.11-20.22.12-30.04,0-1.62,1.62-3.35,2.89-4.62,44.37-44.37,88.74-88.74,133.1-133.1,1.27-1.27,3.12-2.89,4.62-2.89,15.37-.23,30.73-.12,47.14-.12-1.5,1.96-2.31,3.12-3.35,4.16-7.16,7.28-14.56,14.44-21.72,21.84-6.35,6.59-6.59,15.14-1.04,20.91,5.89,6.01,14.44,5.89,21.26-.92,14.33-13.98,28.19-28.31,42.52-42.29,2.2-2.08,5.89-3.58,8.9-3.7,21.49-.23,42.98,0,64.47-.23,4.74,0,6.12,1.39,6.12,6.12-.11,53.04-.11,106.07,0,159.22Z"/>
    <path class="cls-2" d="m298.56,480.03c-7.63.03-14.17-6.43-14.22-14.05-.06-7.71,6.85-14.47,14.63-14.32,7.52.15,13.69,6.28,13.83,13.75.15,7.88-6.39,14.6-14.24,14.62Z"/>
  </g>
</svg>